<svg width="24" height="24" viewBox="0 0 24 24" fill="none" xmlns="http://www.w3.org/2000/svg">
<path fill-rule="evenodd" clip-rule="evenodd" d="M8 2C4.68629 2 2 4.68629 2 8V16C2 19.3137 4.68629 22 8 22H16C19.3137 22 22 19.3137 22 16V8C22 4.68629 19.3137 2 16 2H8ZM8.06279 14.5353C7.22577 14.052 6.93899 12.9817 7.42224 12.1447L10.6722 6.51555C11.1555 5.67854 12.2258 5.39176 13.0628 5.87501C13.8998 6.35826 14.1866 7.42854 13.7033 8.26555L10.4533 13.8947C9.97008 14.7317 8.8998 15.0185 8.06279 14.5353ZM6.6 18.45C7.48366 18.45 8.2 17.7336 8.2 16.85C8.2 15.9663 7.48366 15.25 6.6 15.25C5.71634 15.25 5 15.9663 5 16.85C5 17.7336 5.71634 18.45 6.6 18.45ZM17.4 18.45C18.2837 18.45 19 17.7336 19 16.85C19 15.9663 18.2837 15.25 17.4 15.25C16.5164 15.25 15.8 15.9663 15.8 16.85C15.8 17.7336 16.5164 18.45 17.4 18.45ZM10.375 16.0844C9.89175 16.9214 10.1785 17.9917 11.0155 18.475C11.8526 18.9582 12.9228 18.6714 13.4061 17.8344L16.1561 13.0713C16.6393 12.2343 16.3526 11.164 15.5155 10.6807C14.6785 10.1975 13.6082 10.4843 13.125 11.3213L10.375 16.0844Z" fill="black"/>
</svg>
